<svg width="151" height="47" viewBox="0 0 151 47" fill="none" xmlns="http://www.w3.org/2000/svg">
<circle cx="136.518" cy="14.8039" r="9.26596" transform="rotate(-51.2755 136.518 14.8039)" fill="#C0C6DE" stroke="#F1F3F8" stroke-width="2"/>
<circle cx="128.573" cy="19.2417" r="12.6879" transform="rotate(-51.2755 128.573 19.2417)" fill="#8D93AB" stroke="#F1F3F8" stroke-width="2"/>
<circle cx="119.449" cy="23.8967" r="14.7903" transform="rotate(-51.2755 119.449 23.8967)" fill="#696E84" stroke="#F1F3F8" stroke-width="2"/>
<path d="M124.42 31.682L122.99 30.186C121.949 30.9487 120.577 31.33 118.876 31.33C116.691 31.33 114.894 30.6333 113.486 29.24C111.946 27.7147 111.176 25.852 111.176 23.652C111.176 22.596 111.374 21.5913 111.77 20.638C112.181 19.6847 112.723 18.8707 113.398 18.196C114.865 16.7293 116.779 15.996 119.14 15.996C121.413 15.996 123.305 16.7 124.816 18.108C126.341 19.5307 127.104 21.3933 127.104 23.696C127.104 24.664 126.899 25.61 126.488 26.534C126.151 27.3113 125.674 27.9713 125.058 28.514L127.61 31.286L124.42 31.682ZM121.45 24.884L122.77 26.292C123.342 25.5147 123.628 24.6347 123.628 23.652C123.628 22.332 123.21 21.254 122.374 20.418C121.538 19.5527 120.46 19.12 119.14 19.12C117.835 19.12 116.764 19.5527 115.928 20.418C115.077 21.298 114.652 22.398 114.652 23.718C114.652 24.9793 115.063 26.0427 115.884 26.908C116.72 27.7733 117.776 28.206 119.052 28.206C119.683 28.206 120.269 28.0813 120.812 27.832L118.172 25.236L121.45 24.884Z" fill="#F1F3F8"/>
<path d="M9.944 17.448L8.426 19.912C7.64867 19.208 6.82733 18.856 5.962 18.856C5.31667 18.856 4.84 19.0247 4.532 19.362C4.28267 19.6113 4.158 19.9193 4.158 20.286C4.158 20.6233 4.268 20.8947 4.488 21.1C4.56133 21.1587 4.63467 21.2173 4.708 21.276C4.78133 21.32 4.884 21.3713 5.016 21.43C5.148 21.4887 5.258 21.54 5.346 21.584C5.434 21.6133 5.588 21.672 5.808 21.76C6.028 21.8333 6.204 21.892 6.336 21.936L7.436 22.354C8.36 22.706 9.02733 23.08 9.438 23.476C10.1567 24.1507 10.516 25.06 10.516 26.204C10.516 27.7293 10.0833 28.9393 9.218 29.834C8.26467 30.8313 6.87867 31.33 5.06 31.33C3.94533 31.33 2.97733 31.1247 2.156 30.714C1.42267 30.3473 0.704 29.812 0 29.108L1.76 26.688C2.25867 27.1867 2.71333 27.5607 3.124 27.81C3.696 28.162 4.312 28.338 4.972 28.338C5.60267 28.338 6.116 28.1693 6.512 27.832C6.864 27.5387 7.04 27.1427 7.04 26.644C7.04 26.2333 6.87133 25.8813 6.534 25.588C6.27 25.368 5.698 25.0967 4.818 24.774L3.608 24.356C2.65467 24.0187 1.97267 23.63 1.562 23.19C0.975334 22.574 0.682 21.7233 0.682 20.638C0.682 19.3033 1.10733 18.2033 1.958 17.338C2.838 16.4433 4.048 15.996 5.588 15.996C7.18667 15.996 8.63867 16.48 9.944 17.448Z" fill="#696E84"/>
<path d="M23.5797 31H20.1917L22.5457 16.326H25.3617L29.0137 25.104L32.6657 16.326H35.4817L37.8357 31H34.4477L33.2817 22.244L29.6077 31H28.4197L24.7457 22.244L23.5797 31Z" fill="#696E84"/>
<path d="M58.004 31L56.904 28.228H51.36L50.238 31H46.718L52.636 16.326H55.738L61.524 31H58.004ZM52.35 25.632H55.98L54.176 20.704L52.35 25.632Z" fill="#696E84"/>
<path d="M71.0887 16.326H76.2367C77.8207 16.326 79.0674 16.7513 79.9767 17.602C80.8274 18.4233 81.2527 19.516 81.2527 20.88C81.2527 22.1267 80.8714 23.124 80.1087 23.872C79.522 24.4293 78.84 24.8033 78.0627 24.994L82.5727 31H78.4367L74.4767 25.214V31H71.0887V16.326ZM74.4767 18.966V22.992H75.2467C76.1707 22.992 76.8454 22.7793 77.2707 22.354C77.6374 21.9873 77.8207 21.5107 77.8207 20.924C77.8207 20.2787 77.5934 19.78 77.1387 19.428C76.728 19.12 76.1047 18.966 75.2687 18.966H74.4767Z" fill="#696E84"/>
<path d="M100.237 19.186H97.0473V31H93.6593V19.186H90.4693V16.326H100.237V19.186Z" fill="#696E84"/>
</svg>
